<svg width="28" height="27" viewBox="0 0 28 27" fill="none" xmlns="http://www.w3.org/2000/svg">
<path d="M16.0428 20.5823C13.8664 19.7739 11.6279 19.6496 9.5759 20.2092C8.14571 20.5823 6.77772 21.3285 5.53408 22.2612L4.66352 23.0074L4.41479 23.2561L4.97443 23.7535C5.03661 23.7535 5.03662 23.8157 5.0988 23.8779C5.22316 24.0023 5.34753 24.0645 5.53408 24.1888L5.90715 24.4375L6.28025 24.1266C6.34243 24.0645 6.46679 23.9401 6.59116 23.8779C7.71043 22.9452 8.95406 22.3234 10.2599 22.0125C11.9388 21.5772 13.7421 21.6394 15.5453 22.3234C17.0377 22.883 20.0846 23.567 23.7533 22.0125L23.8777 21.9503L24.0643 21.7637C24.0643 21.7016 24.1264 21.7015 24.1886 21.6394C24.4995 21.2663 24.8104 20.8932 25.0592 20.4579L26.3028 18.5303L24.313 19.6495C21.3904 21.2663 18.7166 21.5772 16.0428 20.5823Z" fill="#39BE00"/>
<path d="M7.52389 13.8665C9.2028 13.4312 11.0061 13.4934 12.8093 14.1774C14.7992 14.9236 19.8981 15.9807 25.6188 10.8196L26.5515 9.88685L26.6137 9.82466L26.8624 9.57594L26.7381 9.26503C26.6759 9.0163 26.5515 8.7054 26.4272 8.39449L26.1162 7.52393L25.4944 8.14574C25.4322 8.27011 25.3079 8.33229 25.1835 8.45665C22.4475 11.2548 18.2192 14.1152 13.369 12.3741C11.1926 11.5658 8.95407 11.4414 6.90207 12.001C4.91225 12.5607 3.17115 13.6178 1.55443 15.1101V15.0479L0.6217 16.0428C0.6217 16.105 0.55953 16.105 0.497348 16.1672L0.310791 16.3538L0.372977 16.6025C0.435158 16.9134 0.559518 17.2243 0.6217 17.5352L0.994795 18.5301L1.61661 17.7218C1.67879 17.5974 1.80315 17.5352 1.86534 17.4109C3.17115 16.2294 4.97443 14.5505 7.52389 13.8665Z" fill="#39BE00"/>
<path d="M1.49238 12.7474C2.92256 11.2551 4.53928 10.3223 6.28037 9.82486C7.95928 9.38959 9.76255 9.45177 11.5658 10.1358C17.1622 12.1878 22.0124 8.82996 24.1266 7.02668L24.9349 6.21833L25.2458 5.96958L24.9971 5.59651C24.8106 5.40996 24.6862 5.16123 24.4997 4.9125L24.1266 4.41504L23.6913 4.85032C23.6291 4.9125 23.5047 5.03686 23.4426 5.09904C20.8309 7.58632 16.7891 10.1358 12.1876 8.39469C10.0113 7.58633 7.77273 7.46196 5.72074 8.0216C4.41492 8.39469 3.17128 9.0165 1.92764 9.82486L0.621818 10.882C0.497455 11.0063 0.435273 11.0685 0.310909 11.1929L0.186557 11.3172V11.5038C0.124375 11.9391 0.124367 12.3743 0.0621856 12.7474L0 14.302L1.0571 13.1827C1.18146 13.0583 1.30583 12.8718 1.49238 12.7474Z" fill="#39BE00"/>
<path d="M17.8461 24.8108L17.7217 25.1839L17.8461 24.8108C17.6595 24.7486 17.5352 24.6864 17.3486 24.6242C15.1723 23.8158 12.9337 23.6915 10.8817 24.2511C10.4464 24.3755 10.0112 24.4998 9.5759 24.6864L8.08352 25.3704L7.71045 25.5569L8.95409 25.9922C9.32718 26.1166 9.70026 26.2409 10.0734 26.3653L10.2599 26.4275L10.4464 26.3653C10.633 26.3031 10.8195 26.1788 11.0061 26.1788C11.1304 26.1788 11.2548 26.1166 11.3792 26.0544C12.8715 25.6813 14.4883 25.6813 16.2293 26.2409C16.4159 26.3031 16.5403 26.3653 16.7268 26.4275L17.0377 26.5518L17.2243 26.4897C17.6595 26.3653 18.157 26.2409 18.5301 26.0544L20.2712 25.4326L18.4679 24.9973C18.2814 24.9351 18.0326 24.8729 17.8461 24.8108Z" fill="#39BE00"/>
<path d="M27.36 11.939L26.4273 12.8717C26.3029 12.9961 26.1786 13.1204 26.0542 13.2448C23.5047 15.6699 19.4007 18.2815 14.7993 16.5404C12.6229 15.7321 10.3844 15.6077 8.33237 16.1673C6.40473 16.727 4.66363 17.7219 3.10908 19.2142L2.30073 20.0848L2.052 20.3957L2.30073 20.7688C2.48727 21.0175 2.61164 21.2041 2.73601 21.4528L3.10908 22.0124L3.54436 21.4528C3.60654 21.3906 3.7309 21.2662 3.79309 21.2041C5.28545 19.5873 6.90218 18.5924 8.76763 18.095C10.4465 17.6597 12.2498 17.7219 14.0531 18.4059C15.6076 18.9655 17.2244 19.1521 18.8411 18.9655C21.7015 18.6546 24.5618 17.0379 26.676 15.2346C26.8004 15.1102 26.9247 15.0481 27.0491 14.9237L27.2356 14.7371V14.5506C27.2356 14.1775 27.2978 13.7422 27.2978 13.3692L27.36 11.939Z" fill="#39BE00"/>
<path d="M3.73094 6.21814L3.5444 5.84504L3.73094 6.21814C4.10403 6.03159 4.53932 5.90722 4.91241 5.78286C6.59132 5.34758 8.39459 5.40976 10.1979 6.09376C11.3793 6.52904 12.5608 6.71558 13.8666 6.71558C16.4782 6.71558 19.0899 5.78286 21.5149 3.97959L22.4477 3.2334L22.7586 2.98467L22.1989 2.54939C22.0124 2.36285 21.7637 2.17631 21.5149 2.05195L21.1418 1.80322L20.8309 2.05195C20.7066 2.11413 20.6444 2.23849 20.52 2.30067C17.2244 4.78794 13.9288 5.47195 10.8197 4.2905C8.58114 3.48213 6.34258 3.29559 4.10403 3.97959C3.91749 4.04177 3.73094 4.10394 3.48222 4.16612L3.35786 4.22831L3.17131 4.41485C3.17131 4.47703 3.10914 4.47704 3.04695 4.53922C2.79823 4.91231 2.48731 5.22323 2.23858 5.59632L1.05713 7.39959L2.98477 6.40467C3.29568 6.40467 3.54439 6.28032 3.73094 6.21814Z" fill="#39BE00"/>
<path d="M8.82991 1.98981L9.01645 2.05199C9.82482 2.3629 11.0685 2.67381 12.623 2.67381C14.2397 2.67381 15.7943 2.30072 17.3488 1.6789L19.2765 0.74617L17.9706 0.310909C17.5976 0.186545 17.2245 0.0621818 16.7892 0H16.6026L16.4161 0.0621666C16.2296 0.124348 16.043 0.248727 15.8565 0.310909C13.991 0.994909 12.1255 1.11927 10.3223 0.621818C10.1357 0.559636 9.94919 0.497443 9.76264 0.435261L9.5761 0.373076L9.38955 0.435261C9.01646 0.559625 8.64337 0.683996 8.27028 0.870542L6.84009 1.49236L8.33247 1.92762C8.45683 1.86544 8.64337 1.92762 8.82991 1.98981Z" fill="#39BE00"/>
</svg>
